# xmcd CD database file
# Copyright (C) 1993-1998 Ti Kan
#
# Track frame offsets:
#	183
#	11943
#	25590
#	37670
#	49748
#	63910
#	76968
#	89340
#	101118
#	114463
#	126993
#	140415
#	153385
#	165238
#	178655
#	190070
#	204238
#	216980
#	229215
#	243380
#	255313
#
# Disc length: 3562 seconds
#
# Revision: 1
# Processed by: cddbd v1.4b41PL1 Copyright (c) Steve Scherf et al.
# Submitted via: CDValet v3.31 - Copyright (c) 1997 Greg Leichner
#
DISCID=110de815
DTITLE=Louis Jordan and His Tympany Five - The Complete Aladdin
DTITLE=Sessions
DYEAR=1900
DGENRE=
TTITLE0=Yeah Yeah Baby
TTITLE1=Louis' Blues
TTITLE2=I've Seen What You've Done
TTITLE3=Fat Back and Corn Likker
TTITLE4=Put Some Money In The Pot, Boy 'Cause The Juice Is Runn
TTITLE4=ing Low
TTITLE5=Gotta Go
TTITLE6=The Dipper
TTITLE7=Time's A Passin'
TTITLE8=Whiskey Do Your Stuff
TTITLE9=Gal You Need A Whippin'
TTITLE10=It's Hard To Be Good
TTITLE11=A Dollar Down
TTITLE12=Dad Gum Ya Hide, Boy
TTITLE13=Till We Two Are One
TTITLE14=Ooo Wee
TTITLE15=Private Property (No Trespassing)
TTITLE16=For You
TTITLE17=Messy Bessy
TTITLE18=I'll Die Happy
TTITLE19=If I Had Any Sense I'd Go Back Home
TTITLE20=Hurry Home
EXTD=
EXTT0=
EXTT1=
EXTT2=
EXTT3=
EXTT4=
EXTT5=
EXTT6=
EXTT7=
EXTT8=
EXTT9=
EXTT10=
EXTT11=
EXTT12=
EXTT13=
EXTT14=
EXTT15=
EXTT16=
EXTT17=
EXTT18=
EXTT19=
EXTT20=
PLAYORDER=
